<svg width="262" height="65" viewBox="0 0 262 65" fill="none" xmlns="http://www.w3.org/2000/svg">
<path d="M50.8206 26.5H42.3206V16.5C42.3206 7.4 34.9206 0 25.8206 0C16.7206 0 9.32062 7.4 9.32062 16.5V26.5H0.820618C0.520618 26.5 0.320618 26.7 0.320618 27V64C0.320618 64.3 0.520618 64.5 0.820618 64.5H50.8206C51.1206 64.5 51.3206 64.3 51.3206 64V27C51.3206 26.7 51.1206 26.5 50.8206 26.5ZM25.8206 4C32.7206 4 38.3206 9.6 38.3206 16.5V26.5H13.3206V16.5C13.3206 9.6 18.9206 4 25.8206 4ZM4.32062 60.5V30.5H47.3206V60.5H4.32062Z" fill="white"/>
<path d="M30.972 44.566C30.972 45.394 30.828 46.102 30.54 46.69C30.252 47.266 29.856 47.734 29.352 48.094C28.86 48.454 28.278 48.718 27.606 48.886C26.946 49.054 26.232 49.138 25.464 49.138V52H21.63V39.994H25.464C26.232 39.994 26.946 40.078 27.606 40.246C28.278 40.414 28.86 40.678 29.352 41.038C29.856 41.398 30.252 41.872 30.54 42.46C30.828 43.036 30.972 43.738 30.972 44.566ZM25.464 45.898H25.626C26.13 45.898 26.49 45.784 26.706 45.556C26.934 45.316 27.048 44.986 27.048 44.566C27.048 44.146 26.934 43.822 26.706 43.594C26.49 43.354 26.13 43.234 25.626 43.234H25.464V45.898Z" fill="white"/>
<path d="M84.24 42.06C85.32 42.06 86.2667 41.92 87.08 41.64C87.9067 41.36 88.5933 40.9667 89.14 40.46C89.7 39.94 90.12 39.3267 90.4 38.62C90.68 37.9 90.82 37.1067 90.82 36.24C90.82 34.4933 90.2733 33.12 89.18 32.12C88.1 31.12 86.4533 30.62 84.24 30.62H79.8V42.06H84.24ZM84.24 27.28C86.08 27.28 87.68 27.4933 89.04 27.92C90.4 28.3467 91.5267 28.9533 92.42 29.74C93.3133 30.5133 93.9733 31.4533 94.4 32.56C94.84 33.6667 95.06 34.8933 95.06 36.24C95.06 37.5867 94.8267 38.8267 94.36 39.96C93.8933 41.08 93.2067 42.0467 92.3 42.86C91.3933 43.6733 90.26 44.3067 88.9 44.76C87.5533 45.2 86 45.42 84.24 45.42H79.8V56H75.54V27.28H84.24ZM111.403 43.58C111.403 42.8067 111.29 42.0933 111.063 41.44C110.85 40.7867 110.53 40.22 110.103 39.74C109.676 39.26 109.156 38.8867 108.543 38.62C107.93 38.3533 107.223 38.22 106.423 38.22C104.783 38.22 103.49 38.6933 102.543 39.64C101.61 40.5867 101.016 41.9 100.763 43.58H111.403ZM114.623 53.1C114.143 53.66 113.59 54.1467 112.963 54.56C112.336 54.96 111.67 55.2867 110.963 55.54C110.256 55.7933 109.523 55.98 108.763 56.1C108.016 56.22 107.276 56.28 106.543 56.28C105.143 56.28 103.843 56.0467 102.643 55.58C101.456 55.1 100.423 54.4067 99.5431 53.5C98.6765 52.58 97.9965 51.4467 97.5031 50.1C97.0231 48.74 96.7831 47.18 96.7831 45.42C96.7831 44.0067 97.0031 42.6933 97.4431 41.48C97.8831 40.2533 98.5098 39.1867 99.3231 38.28C100.15 37.3733 101.156 36.66 102.343 36.14C103.53 35.62 104.863 35.36 106.343 35.36C107.583 35.36 108.723 35.5667 109.763 35.98C110.816 36.38 111.723 36.9667 112.483 37.74C113.243 38.5133 113.836 39.4667 114.263 40.6C114.703 41.7333 114.923 43.0267 114.923 44.48C114.923 45.08 114.856 45.4867 114.723 45.7C114.59 45.9 114.343 46 113.983 46H100.663C100.703 47.2133 100.876 48.2733 101.183 49.18C101.49 50.0733 101.91 50.82 102.443 51.42C102.99 52.02 103.636 52.4667 104.383 52.76C105.13 53.0533 105.963 53.2 106.883 53.2C107.75 53.2 108.496 53.1 109.123 52.9C109.763 52.7 110.31 52.4867 110.763 52.26C111.23 52.02 111.616 51.8 111.923 51.6C112.243 51.4 112.523 51.3 112.763 51.3C113.083 51.3 113.33 51.42 113.503 51.66L114.623 53.1ZM122.795 39.58C123.448 38.2467 124.235 37.2 125.155 36.44C126.075 35.68 127.182 35.3 128.475 35.3C128.915 35.3 129.328 35.3533 129.715 35.46C130.115 35.5533 130.462 35.7 130.755 35.9L130.495 38.84C130.402 39.2 130.182 39.38 129.835 39.38C129.648 39.38 129.368 39.3467 128.995 39.28C128.622 39.2 128.222 39.16 127.795 39.16C127.168 39.16 126.615 39.2533 126.135 39.44C125.655 39.6133 125.222 39.88 124.835 40.24C124.462 40.5867 124.128 41.02 123.835 41.54C123.542 42.0467 123.268 42.6267 123.015 43.28V56H119.115V35.68H121.355C121.782 35.68 122.068 35.76 122.215 35.92C122.375 36.0667 122.488 36.3333 122.555 36.72L122.795 39.58ZM133.763 56V35.68H136.103C136.65 35.68 136.99 35.94 137.123 36.46L137.403 38.4C138.15 37.5067 138.977 36.78 139.883 36.22C140.803 35.6467 141.877 35.36 143.103 35.36C144.45 35.36 145.543 35.7333 146.383 36.48C147.223 37.2133 147.837 38.2133 148.223 39.48C148.517 38.76 148.897 38.14 149.363 37.62C149.83 37.1 150.35 36.6733 150.923 36.34C151.497 36.0067 152.103 35.76 152.743 35.6C153.397 35.44 154.057 35.36 154.723 35.36C155.803 35.36 156.763 35.5333 157.603 35.88C158.457 36.2133 159.177 36.7067 159.763 37.36C160.35 38.0133 160.797 38.82 161.103 39.78C161.41 40.74 161.563 41.8333 161.563 43.06V56H157.643V43.06C157.643 41.54 157.31 40.3933 156.643 39.62C155.99 38.8467 155.03 38.46 153.763 38.46C153.203 38.46 152.67 38.56 152.163 38.76C151.657 38.9467 151.21 39.2333 150.823 39.62C150.45 40.0067 150.15 40.4867 149.923 41.06C149.71 41.6333 149.603 42.3 149.603 43.06V56H145.683V43.06C145.683 41.4867 145.37 40.3267 144.743 39.58C144.117 38.8333 143.197 38.46 141.983 38.46C141.143 38.46 140.363 38.68 139.643 39.12C138.923 39.56 138.263 40.16 137.663 40.92V56H133.763ZM177.73 46.98C176.144 47.0333 174.797 47.16 173.69 47.36C172.584 47.5467 171.684 47.8 170.99 48.12C170.297 48.44 169.797 48.82 169.49 49.26C169.184 49.6867 169.03 50.1667 169.03 50.7C169.03 51.2067 169.11 51.6467 169.27 52.02C169.444 52.38 169.67 52.68 169.95 52.92C170.244 53.1467 170.584 53.3133 170.97 53.42C171.357 53.5267 171.777 53.58 172.23 53.58C172.83 53.58 173.377 53.52 173.87 53.4C174.377 53.28 174.85 53.1133 175.29 52.9C175.73 52.6733 176.15 52.4 176.55 52.08C176.95 51.76 177.344 51.3933 177.73 50.98V46.98ZM166.29 38.52C167.424 37.44 168.65 36.6333 169.97 36.1C171.304 35.5667 172.764 35.3 174.35 35.3C175.51 35.3 176.537 35.4933 177.43 35.88C178.324 36.2533 179.077 36.78 179.69 37.46C180.304 38.14 180.764 38.9533 181.07 39.9C181.39 40.8467 181.55 41.8933 181.55 43.04V56H179.81C179.424 56 179.13 55.94 178.93 55.82C178.73 55.6867 178.57 55.4467 178.45 55.1L178.03 53.32C177.51 53.8 176.997 54.2267 176.49 54.6C175.984 54.96 175.45 55.2733 174.89 55.54C174.344 55.7933 173.757 55.9867 173.13 56.12C172.504 56.2533 171.81 56.32 171.05 56.32C170.25 56.32 169.497 56.2133 168.79 56C168.097 55.7733 167.49 55.4333 166.97 54.98C166.45 54.5267 166.037 53.96 165.73 53.28C165.437 52.6 165.29 51.8067 165.29 50.9C165.29 50.1 165.504 49.3333 165.93 48.6C166.37 47.8533 167.077 47.1867 168.05 46.6C169.037 46.0133 170.317 45.5333 171.89 45.16C173.477 44.7867 175.424 44.5733 177.73 44.52V43.04C177.73 41.5067 177.404 40.36 176.75 39.6C176.097 38.84 175.137 38.46 173.87 38.46C173.017 38.46 172.297 38.5667 171.71 38.78C171.137 38.9933 170.637 39.2333 170.21 39.5C169.797 39.7533 169.43 39.9867 169.11 40.2C168.804 40.4133 168.484 40.52 168.15 40.52C167.884 40.52 167.65 40.4467 167.45 40.3C167.264 40.1533 167.11 39.98 166.99 39.78L166.29 38.52ZM190.671 51C191.311 51.84 191.998 52.4267 192.731 52.76C193.478 53.0933 194.311 53.26 195.231 53.26C197.018 53.26 198.398 52.62 199.371 51.34C200.358 50.0467 200.851 48.1667 200.851 45.7C200.851 44.4067 200.738 43.3067 200.511 42.4C200.298 41.48 199.978 40.7333 199.551 40.16C199.138 39.5733 198.625 39.1467 198.011 38.88C197.398 38.6 196.705 38.46 195.931 38.46C194.798 38.46 193.811 38.7133 192.971 39.22C192.145 39.7267 191.378 40.4467 190.671 41.38V51ZM190.471 38.72C190.898 38.2133 191.351 37.7533 191.831 37.34C192.325 36.9133 192.851 36.5533 193.411 36.26C193.971 35.9533 194.565 35.72 195.191 35.56C195.831 35.3867 196.511 35.3 197.231 35.3C198.391 35.3 199.438 35.5267 200.371 35.98C201.318 36.4333 202.125 37.1 202.791 37.98C203.458 38.86 203.971 39.9467 204.331 41.24C204.705 42.5333 204.891 44.02 204.891 45.7C204.891 47.2067 204.685 48.6067 204.271 49.9C203.871 51.18 203.291 52.2933 202.531 53.24C201.785 54.1867 200.865 54.9333 199.771 55.48C198.691 56.0133 197.471 56.28 196.111 56.28C194.898 56.28 193.858 56.08 192.991 55.68C192.125 55.28 191.351 54.72 190.671 54V62.82H186.771V35.68H189.111C189.658 35.68 189.998 35.94 190.131 36.46L190.471 38.72ZM220.191 46.98C218.605 47.0333 217.258 47.16 216.151 47.36C215.045 47.5467 214.145 47.8 213.451 48.12C212.758 48.44 212.258 48.82 211.951 49.26C211.645 49.6867 211.491 50.1667 211.491 50.7C211.491 51.2067 211.571 51.6467 211.731 52.02C211.905 52.38 212.131 52.68 212.411 52.92C212.705 53.1467 213.045 53.3133 213.431 53.42C213.818 53.5267 214.238 53.58 214.691 53.58C215.291 53.58 215.838 53.52 216.331 53.4C216.838 53.28 217.311 53.1133 217.751 52.9C218.191 52.6733 218.611 52.4 219.011 52.08C219.411 51.76 219.805 51.3933 220.191 50.98V46.98ZM208.751 38.52C209.885 37.44 211.111 36.6333 212.431 36.1C213.765 35.5667 215.225 35.3 216.811 35.3C217.971 35.3 218.998 35.4933 219.891 35.88C220.785 36.2533 221.538 36.78 222.151 37.46C222.765 38.14 223.225 38.9533 223.531 39.9C223.851 40.8467 224.011 41.8933 224.011 43.04V56H222.271C221.885 56 221.591 55.94 221.391 55.82C221.191 55.6867 221.031 55.4467 220.911 55.1L220.491 53.32C219.971 53.8 219.458 54.2267 218.951 54.6C218.445 54.96 217.911 55.2733 217.351 55.54C216.805 55.7933 216.218 55.9867 215.591 56.12C214.965 56.2533 214.271 56.32 213.511 56.32C212.711 56.32 211.958 56.2133 211.251 56C210.558 55.7733 209.951 55.4333 209.431 54.98C208.911 54.5267 208.498 53.96 208.191 53.28C207.898 52.6 207.751 51.8067 207.751 50.9C207.751 50.1 207.965 49.3333 208.391 48.6C208.831 47.8533 209.538 47.1867 210.511 46.6C211.498 46.0133 212.778 45.5333 214.351 45.16C215.938 44.7867 217.885 44.5733 220.191 44.52V43.04C220.191 41.5067 219.865 40.36 219.211 39.6C218.558 38.84 217.598 38.46 216.331 38.46C215.478 38.46 214.758 38.5667 214.171 38.78C213.598 38.9933 213.098 39.2333 212.671 39.5C212.258 39.7533 211.891 39.9867 211.571 40.2C211.265 40.4133 210.945 40.52 210.611 40.52C210.345 40.52 210.111 40.4467 209.911 40.3C209.725 40.1533 209.571 39.98 209.451 39.78L208.751 38.52ZM241.212 39.18C241.106 39.3533 240.992 39.48 240.872 39.56C240.752 39.6267 240.599 39.66 240.412 39.66C240.199 39.66 239.959 39.5867 239.692 39.44C239.439 39.2933 239.126 39.1333 238.752 38.96C238.392 38.7867 237.966 38.6267 237.472 38.48C236.979 38.3333 236.392 38.26 235.712 38.26C235.152 38.26 234.639 38.3333 234.172 38.48C233.719 38.6133 233.332 38.8067 233.012 39.06C232.692 39.3 232.446 39.5933 232.272 39.94C232.099 40.2733 232.012 40.6333 232.012 41.02C232.012 41.5267 232.159 41.9467 232.452 42.28C232.759 42.6133 233.152 42.9 233.632 43.14C234.126 43.38 234.679 43.6 235.292 43.8C235.919 43.9867 236.552 44.1867 237.192 44.4C237.846 44.6133 238.479 44.86 239.092 45.14C239.719 45.4067 240.272 45.7467 240.752 46.16C241.246 46.56 241.639 47.0467 241.932 47.62C242.239 48.1933 242.392 48.8933 242.392 49.72C242.392 50.6667 242.219 51.5467 241.872 52.36C241.539 53.16 241.039 53.8533 240.372 54.44C239.719 55.0267 238.906 55.4867 237.932 55.82C236.959 56.1533 235.846 56.32 234.592 56.32C233.192 56.32 231.899 56.0867 230.712 55.62C229.526 55.1533 228.532 54.56 227.732 53.84L228.652 52.34C228.759 52.1533 228.892 52.0133 229.052 51.92C229.212 51.8133 229.426 51.76 229.692 51.76C229.946 51.76 230.206 51.8533 230.472 52.04C230.739 52.2267 231.059 52.4333 231.432 52.66C231.806 52.8733 232.259 53.0733 232.792 53.26C233.326 53.4333 233.992 53.52 234.792 53.52C235.459 53.52 236.039 53.44 236.532 53.28C237.026 53.1067 237.432 52.88 237.752 52.6C238.086 52.3067 238.332 51.9733 238.492 51.6C238.652 51.2267 238.732 50.8333 238.732 50.42C238.732 49.8867 238.579 49.4467 238.272 49.1C237.979 48.74 237.586 48.4333 237.092 48.18C236.612 47.9267 236.059 47.7067 235.432 47.52C234.806 47.3333 234.166 47.1333 233.512 46.92C232.859 46.7067 232.219 46.46 231.592 46.18C230.966 45.9 230.406 45.5467 229.912 45.12C229.432 44.6933 229.039 44.1733 228.732 43.56C228.439 42.9467 228.292 42.2 228.292 41.32C228.292 40.5333 228.452 39.78 228.772 39.06C229.106 38.34 229.579 37.7067 230.192 37.16C230.819 36.6133 231.586 36.18 232.492 35.86C233.412 35.5267 234.459 35.36 235.632 35.36C236.979 35.36 238.192 35.5733 239.272 36C240.366 36.4267 241.299 37.0133 242.072 37.76L241.212 39.18ZM258.595 39.18C258.488 39.3533 258.375 39.48 258.255 39.56C258.135 39.6267 257.982 39.66 257.795 39.66C257.582 39.66 257.342 39.5867 257.075 39.44C256.822 39.2933 256.508 39.1333 256.135 38.96C255.775 38.7867 255.348 38.6267 254.855 38.48C254.362 38.3333 253.775 38.26 253.095 38.26C252.535 38.26 252.022 38.3333 251.555 38.48C251.102 38.6133 250.715 38.8067 250.395 39.06C250.075 39.3 249.828 39.5933 249.655 39.94C249.482 40.2733 249.395 40.6333 249.395 41.02C249.395 41.5267 249.542 41.9467 249.835 42.28C250.142 42.6133 250.535 42.9 251.015 43.14C251.508 43.38 252.062 43.6 252.675 43.8C253.302 43.9867 253.935 44.1867 254.575 44.4C255.228 44.6133 255.862 44.86 256.475 45.14C257.102 45.4067 257.655 45.7467 258.135 46.16C258.628 46.56 259.022 47.0467 259.315 47.62C259.622 48.1933 259.775 48.8933 259.775 49.72C259.775 50.6667 259.602 51.5467 259.255 52.36C258.922 53.16 258.422 53.8533 257.755 54.44C257.102 55.0267 256.288 55.4867 255.315 55.82C254.342 56.1533 253.228 56.32 251.975 56.32C250.575 56.32 249.282 56.0867 248.095 55.62C246.908 55.1533 245.915 54.56 245.115 53.84L246.035 52.34C246.142 52.1533 246.275 52.0133 246.435 51.92C246.595 51.8133 246.808 51.76 247.075 51.76C247.328 51.76 247.588 51.8533 247.855 52.04C248.122 52.2267 248.442 52.4333 248.815 52.66C249.188 52.8733 249.642 53.0733 250.175 53.26C250.708 53.4333 251.375 53.52 252.175 53.52C252.842 53.52 253.422 53.44 253.915 53.28C254.408 53.1067 254.815 52.88 255.135 52.6C255.468 52.3067 255.715 51.9733 255.875 51.6C256.035 51.2267 256.115 50.8333 256.115 50.42C256.115 49.8867 255.962 49.4467 255.655 49.1C255.362 48.74 254.968 48.4333 254.475 48.18C253.995 47.9267 253.442 47.7067 252.815 47.52C252.188 47.3333 251.548 47.1333 250.895 46.92C250.242 46.7067 249.602 46.46 248.975 46.18C248.348 45.9 247.788 45.5467 247.295 45.12C246.815 44.6933 246.422 44.1733 246.115 43.56C245.822 42.9467 245.675 42.2 245.675 41.32C245.675 40.5333 245.835 39.78 246.155 39.06C246.488 38.34 246.962 37.7067 247.575 37.16C248.202 36.6133 248.968 36.18 249.875 35.86C250.795 35.5267 251.842 35.36 253.015 35.36C254.362 35.36 255.575 35.5733 256.655 36C257.748 36.4267 258.682 37.0133 259.455 37.76L258.595 39.18Z" fill="white"/>
</svg>
